<svg width="120" height="24" viewBox="0 0 120 24" fill="none" xmlns="http://www.w3.org/2000/svg">
<path d="M21.947 9.179C21.8842 8.99387 21.7685 8.83119 21.6142 8.71106C21.46 8.59093 21.2739 8.5186 21.079 8.503L15.378 8.05L12.911 2.589C12.8325 2.41311 12.7047 2.26372 12.5431 2.15886C12.3815 2.05399 12.193 1.99814 12.0004 1.99803C11.8077 1.99793 11.6192 2.05357 11.4575 2.15826C11.2957 2.26295 11.1678 2.4122 11.089 2.588L8.62203 8.05L2.92103 8.503C2.72948 8.51817 2.54636 8.58821 2.39358 8.70473C2.2408 8.82125 2.12482 8.97932 2.05952 9.16003C1.99422 9.34074 1.98236 9.53643 2.02537 9.7237C2.06838 9.91097 2.16443 10.0819 2.30203 10.216L6.51503 14.323L5.02503 20.775C4.97978 20.9703 4.99428 21.1747 5.06665 21.3616C5.13901 21.5486 5.26589 21.7095 5.43083 21.8234C5.59577 21.9374 5.79115 21.9991 5.99161 22.0007C6.19208 22.0022 6.38837 21.9434 6.55503 21.832L12 18.202L17.445 21.832C17.6154 21.9451 17.8162 22.0033 18.0207 21.9988C18.2251 21.9944 18.4232 21.9274 18.5884 21.8069C18.7536 21.6865 18.878 21.5183 18.9448 21.3251C19.0116 21.1318 19.0176 20.9228 18.962 20.726L17.133 14.326L21.669 10.244C21.966 9.976 22.075 9.558 21.947 9.179Z" fill="#FFAD31"/>
<path d="M69.947 9.179C69.8842 8.99387 69.7685 8.83119 69.6142 8.71106C69.46 8.59093 69.2739 8.5186 69.079 8.503L63.378 8.05L60.911 2.589C60.8325 2.41311 60.7047 2.26372 60.5431 2.15886C60.3815 2.05399 60.193 1.99814 60.0004 1.99803C59.8077 1.99793 59.6192 2.05357 59.4575 2.15826C59.2957 2.26295 59.1678 2.4122 59.089 2.588L56.622 8.05L50.921 8.503C50.7295 8.51817 50.5464 8.58821 50.3936 8.70473C50.2408 8.82125 50.1248 8.97932 50.0595 9.16003C49.9942 9.34074 49.9824 9.53643 50.0254 9.7237C50.0684 9.91097 50.1644 10.0819 50.302 10.216L54.515 14.323L53.025 20.775C52.9798 20.9703 52.9943 21.1747 53.0666 21.3616C53.139 21.5486 53.2659 21.7095 53.4308 21.8234C53.5958 21.9374 53.7911 21.9991 53.9916 22.0007C54.1921 22.0022 54.3884 21.9434 54.555 21.832L60 18.202L65.445 21.832C65.6154 21.9451 65.8162 22.0033 66.0207 21.9988C66.2251 21.9944 66.4232 21.9274 66.5884 21.8069C66.7536 21.6865 66.878 21.5183 66.9448 21.3251C67.0116 21.1318 67.0176 20.9228 66.962 20.726L65.133 14.326L69.669 10.244C69.966 9.976 70.075 9.558 69.947 9.179Z" fill="#FFAD31"/>
<path d="M45.947 9.179C45.8842 8.99387 45.7685 8.83119 45.6142 8.71106C45.46 8.59093 45.2739 8.5186 45.079 8.503L39.378 8.05L36.911 2.589C36.8325 2.41311 36.7047 2.26372 36.5431 2.15886C36.3815 2.05399 36.193 1.99814 36.0004 1.99803C35.8077 1.99793 35.6192 2.05357 35.4575 2.15826C35.2957 2.26295 35.1678 2.4122 35.089 2.588L32.622 8.05L26.921 8.503C26.7295 8.51817 26.5464 8.58821 26.3936 8.70473C26.2408 8.82125 26.1248 8.97932 26.0595 9.16003C25.9942 9.34074 25.9824 9.53643 26.0254 9.7237C26.0684 9.91097 26.1644 10.0819 26.302 10.216L30.515 14.323L29.025 20.775C28.9798 20.9703 28.9943 21.1747 29.0666 21.3616C29.139 21.5486 29.2659 21.7095 29.4308 21.8234C29.5958 21.9374 29.7911 21.9991 29.9916 22.0007C30.1921 22.0022 30.3884 21.9434 30.555 21.832L36 18.202L41.445 21.832C41.6154 21.9451 41.8162 22.0033 42.0207 21.9988C42.2251 21.9944 42.4232 21.9274 42.5884 21.8069C42.7536 21.6865 42.878 21.5183 42.9448 21.3251C43.0116 21.1318 43.0176 20.9228 42.962 20.726L41.133 14.326L45.669 10.244C45.966 9.976 46.075 9.558 45.947 9.179Z" fill="#FFAD31"/>
<path d="M93.947 9.179C93.8842 8.99387 93.7685 8.83119 93.6142 8.71106C93.46 8.59093 93.2739 8.5186 93.079 8.503L87.378 8.05L84.911 2.589C84.8325 2.41311 84.7047 2.26372 84.5431 2.15886C84.3815 2.05399 84.193 1.99814 84.0004 1.99803C83.8077 1.99793 83.6192 2.05357 83.4575 2.15826C83.2957 2.26295 83.1678 2.4122 83.089 2.588L80.622 8.05L74.921 8.503C74.7295 8.51817 74.5464 8.58821 74.3936 8.70473C74.2408 8.82125 74.1248 8.97932 74.0595 9.16003C73.9942 9.34074 73.9824 9.53643 74.0254 9.7237C74.0684 9.91097 74.1644 10.0819 74.302 10.216L78.515 14.323L77.025 20.775C76.9798 20.9703 76.9943 21.1747 77.0666 21.3616C77.139 21.5486 77.2659 21.7095 77.4308 21.8234C77.5958 21.9374 77.7911 21.9991 77.9916 22.0007C78.1921 22.0022 78.3884 21.9434 78.555 21.832L84 18.202L89.445 21.832C89.6154 21.9451 89.8162 22.0033 90.0207 21.9988C90.2251 21.9944 90.4232 21.9274 90.5884 21.8069C90.7536 21.6865 90.878 21.5183 90.9448 21.3251C91.0116 21.1318 91.0176 20.9228 90.962 20.726L89.133 14.326L93.669 10.244C93.966 9.976 94.075 9.558 93.947 9.179Z" fill="#FFAD31"/>
<path d="M117.947 9.179C117.884 8.99387 117.768 8.83119 117.614 8.71106C117.46 8.59093 117.274 8.5186 117.079 8.503L111.378 8.05L108.911 2.589C108.832 2.41311 108.705 2.26372 108.543 2.15886C108.381 2.05399 108.193 1.99814 108 1.99803C107.808 1.99793 107.619 2.05357 107.457 2.15826C107.296 2.26295 107.168 2.4122 107.089 2.588L104.622 8.05L98.921 8.503C98.7295 8.51817 98.5464 8.58821 98.3936 8.70473C98.2408 8.82125 98.1248 8.97932 98.0595 9.16003C97.9942 9.34074 97.9824 9.53643 98.0254 9.7237C98.0684 9.91097 98.1644 10.0819 98.302 10.216L102.515 14.323L101.025 20.775C100.98 20.9703 100.994 21.1747 101.067 21.3616C101.139 21.5486 101.266 21.7095 101.431 21.8234C101.596 21.9374 101.791 21.9991 101.992 22.0007C102.192 22.0022 102.388 21.9434 102.555 21.832L108 18.202L113.445 21.832C113.615 21.9451 113.816 22.0033 114.021 21.9988C114.225 21.9944 114.423 21.9274 114.588 21.8069C114.754 21.6865 114.878 21.5183 114.945 21.3251C115.012 21.1318 115.018 20.9228 114.962 20.726L113.133 14.326L117.669 10.244C117.966 9.976 118.075 9.558 117.947 9.179Z" fill="#DBDBDB"/>
</svg>
