<svg width="24" height="24" viewBox="0 0 24 24" fill="none" xmlns="http://www.w3.org/2000/svg">
  <path fill-rule="evenodd" clip-rule="evenodd" d="M4.708 15.44C5.87877 16.2623 7.27429 16.7044 8.705 16.706C9.14587 17.9065 9.90721 18.9634 10.9064 19.7617C11.9055 20.56 13.1043 21.0694 14.3725 21.2344C15.6407 21.3995 16.9299 21.214 18.1001 20.698C19.2703 20.182 20.2768 19.3553 21.0103 18.3076C21.7438 17.2599 22.1762 16.0313 22.2607 14.7552C22.3451 13.479 22.0783 12.2042 21.4893 11.069C20.9003 9.93377 20.0115 8.98164 18.9195 8.31596C17.8274 7.65028 16.5739 7.29649 15.295 7.29301C14.9162 6.26184 14.3 5.3343 13.4962 4.58542C12.6925 3.83654 11.7238 3.28735 10.6684 2.98225C9.61309 2.67716 8.50076 2.62473 7.4214 2.82921C6.34205 3.0337 5.32597 3.48935 4.45535 4.15931C3.58474 4.82927 2.88402 5.69474 2.40989 6.68571C1.93576 7.67668 1.70152 8.76534 1.72612 9.86362C1.75072 10.9619 2.03346 12.039 2.55148 13.0077C3.06951 13.9765 3.80826 14.8097 4.708 15.44ZM5.855 13.8C6.57332 14.3047 7.41237 14.6104 8.287 14.686C8.19677 13.1171 8.63938 11.5637 9.543 10.278C10.4424 8.98939 11.7508 8.04251 13.256 7.59101C12.9316 6.89627 12.4518 6.28544 11.8536 5.80575C11.2555 5.32607 10.555 4.99037 9.80637 4.82463C9.05775 4.65888 8.28104 4.66753 7.5363 4.8499C6.79156 5.03227 6.09873 5.38347 5.5114 5.87636C4.92406 6.36924 4.45795 6.9906 4.14911 7.6924C3.84026 8.39419 3.69695 9.15761 3.73026 9.92363C3.76357 10.6897 3.97261 11.4378 4.34121 12.1101C4.70981 12.7824 5.2281 13.361 5.856 13.801L5.855 13.8ZM18.145 10.197C17.4266 9.69271 16.5875 9.38739 15.713 9.31201C15.8032 10.8809 15.3606 12.4343 14.457 13.72C13.5576 15.0086 12.2492 15.9555 10.744 16.407C11.0684 17.1018 11.5482 17.7126 12.1464 18.1923C12.7445 18.672 13.445 19.0077 14.1936 19.1734C14.9423 19.3391 15.719 19.3305 16.4637 19.1481C17.2084 18.9658 17.9013 18.6146 18.4886 18.1217C19.0759 17.6288 19.542 17.0074 19.8509 16.3056C20.1597 15.6038 20.3031 14.8404 20.2697 14.0744C20.2364 13.3084 20.0274 12.5603 19.6588 11.8879C19.2902 11.2156 18.7719 10.6371 18.144 10.197H18.145Z" fill="#585656" />
</svg>