<svg width="32" height="32" viewBox="0 0 32 32" fill="none" xmlns="http://www.w3.org/2000/svg">
<rect width="32" height="32" rx="6.09524" fill="#26A4E4"/>
<g clip-path="url(#clip0_4428_5445)">
<path d="M7.73168 15.0929C11.7302 13.3512 14.396 12.2028 15.7288 11.6481C19.5388 10.0638 20.3295 9.7887 20.846 9.77938C20.9595 9.77756 21.2124 9.80563 21.3774 9.93902C21.5145 10.0515 21.5531 10.2037 21.5724 10.3105C21.5895 10.4172 21.6131 10.6604 21.5938 10.8503C21.3881 13.0188 20.4945 18.2813 20.0402 20.7102C19.8495 21.7379 19.4702 22.0825 19.1038 22.1161C18.3067 22.1894 17.7024 21.5898 16.931 21.0843C15.7245 20.293 15.0431 19.8006 13.871 19.0285C12.5167 18.1362 13.3952 17.6457 14.1667 16.8443C14.3681 16.6345 17.8781 13.4427 17.9445 13.1532C17.9531 13.117 17.9617 12.982 17.8802 12.9108C17.801 12.8395 17.6831 12.8639 17.5974 12.8832C17.4752 12.9106 15.5488 14.1852 11.8117 16.7067C11.2652 17.0826 10.7702 17.2658 10.3245 17.2561C9.83596 17.2456 8.89311 16.9793 8.19239 16.7517C7.33525 16.4725 6.65168 16.3248 6.71168 15.8506C6.74168 15.6038 7.08239 15.3511 7.73168 15.0929Z" fill="white"/>
</g>
<defs>
<clipPath id="clip0_4428_5445">
<rect width="27.4286" height="27.4286" fill="white" transform="translate(1.52393 1.52344)"/>
</clipPath>
</defs>
</svg>
