<svg width="32" height="32" viewBox="0 0 32 32" fill="none" xmlns="http://www.w3.org/2000/svg">
<rect width="32" height="32" rx="6.09524" fill="#2CB742"/>
<path d="M20.0358 17.3314C19.7763 17.198 18.4834 16.5647 18.2429 16.479C18.0025 16.3885 17.8263 16.3457 17.6525 16.6123C17.4763 16.8766 16.9763 17.4647 16.8191 17.6433C16.6668 17.8195 16.512 17.8409 16.2525 17.7099C14.7096 16.9385 13.6977 16.3338 12.681 14.5885C12.412 14.1242 12.9501 14.1576 13.4525 13.1552C13.5382 12.979 13.4953 12.829 13.4287 12.6957C13.362 12.5623 12.8382 11.2718 12.6191 10.7457C12.4072 10.2338 12.1882 10.3052 12.0287 10.2957C11.8763 10.2861 11.7025 10.2861 11.5263 10.2861C11.3501 10.2861 11.0668 10.3528 10.8263 10.6123C10.5858 10.8766 9.90723 11.5123 9.90723 12.8028C9.90723 14.0933 10.8477 15.3433 10.9763 15.5195C11.1096 15.6957 12.8263 18.3433 15.462 19.4838C17.1287 20.2028 17.781 20.2647 18.6144 20.1409C19.1215 20.0647 20.1667 19.5076 20.3834 18.8909C20.6001 18.2766 20.6001 17.7504 20.5358 17.6409C20.4715 17.5242 20.2953 17.4576 20.0358 17.3314Z" fill="white"/>
<path d="M25.0762 11.1046C24.5381 9.82605 23.7667 8.67843 22.7833 7.69272C21.8 6.70938 20.6524 5.93557 19.3714 5.39986C18.0619 4.84986 16.6714 4.57129 15.2381 4.57129H15.1905C13.7476 4.57843 12.35 4.86415 11.0357 5.42605C9.76666 5.96891 8.62857 6.74034 7.65476 7.72367C6.68095 8.707 5.91666 9.84986 5.38809 11.1237C4.84047 12.4427 4.56428 13.8451 4.57142 15.288C4.57857 16.9403 4.97381 18.5808 5.71428 20.0475V23.6665C5.71428 24.2713 6.20476 24.7618 6.80952 24.7618H10.4309C11.8976 25.5022 13.5381 25.8975 15.1905 25.9046H15.2405C16.6667 25.9046 18.05 25.6284 19.3524 25.088C20.6262 24.557 21.7714 23.7951 22.7524 22.8213C23.7357 21.8475 24.5095 20.7094 25.05 19.4403C25.6119 18.1261 25.8976 16.7284 25.9048 15.2856C25.9119 13.8356 25.6309 12.4284 25.0762 11.1046ZM21.4786 21.5332C19.8095 23.1856 17.5952 24.0951 15.2381 24.0951H15.1976C13.7619 24.088 12.3357 23.7308 11.0762 23.0594L10.8762 22.9522H7.52381V19.5999L7.41666 19.3999C6.74523 18.1403 6.38809 16.7141 6.38095 15.2784C6.37142 12.9046 7.27857 10.6761 8.94285 8.99748C10.6048 7.31891 12.8262 6.39034 15.2 6.38081H15.2405C16.4309 6.38081 17.5857 6.61177 18.6738 7.06891C19.7357 7.51415 20.6881 8.15462 21.5071 8.97367C22.3238 9.79034 22.9667 10.7451 23.4119 11.807C23.8738 12.907 24.1048 14.0737 24.1 15.2784C24.0857 17.6499 23.1548 19.8713 21.4786 21.5332Z" fill="white"/>
</svg>
